<svg xmlns="http://www.w3.org/2000/svg" width="1920" height="1260" viewBox="0 0 1920 1260">
  <defs>
    <style>
      .cls-1 {
        fill-rule: evenodd;
      }
    </style>
  </defs>
  <path id="Color_Fill_1" data-name="Color Fill 1" class="cls-1" d="M0,0H1920V795c-12.23.053-19.49,3.12-28,5l-142-2v-1q4.995-5,10-10c6.75-20.056,14.36-51.691,3-76q-7.005-7.5-14-15c-6.78-11.7-14.35-29.289-27-34-11.08-4.126-69.96-.9-79,2-8.3,2.665-12.33,8.968-23,11,0.23-22.691,1.88-47.584-12-56-26.34-15.979-88.92-14.023-131-14l-229,1c-14.58,3.068-33.35,5-54,5-49.92,0-137.11-11.331-163,15V735l9,10q-1.005,15.5-2,31c4.1,10.594,13.67,22.227,17,30l-68-2-32-10c-39.163-7.22-53.734,17.458-93,10l-36-8-45-1c-15.983-2.807-44.395-8.043-66-4l-42,12H612l-109-4-25-10c-34.677-6.978-68.11,5.045-93,10l-49-4H275c-27.89,0-53.517,5.04-75,6-10.977.491-23.993-10.031-42-6l-24,9c-20.177,4.078-29.29-6.342-40-9l-33,1-14-7c-8.8-1.883-36.428,12.428-47,15V0ZM1601,804c0.05-15.484,3.77-29.781,10-40,26.8-4.332,15.66-48.818,50-62,36.36-13.957,61.52,3.78,67,34,1.09,6.009,3.88,17.952,1,25q-12.495,17-25,34C1695.31,800.483,1616.8,802.669,1601,804Z"/>
</svg>
